<svg width="190" height="44" fill="none" xmlns="http://www.w3.org/2000/svg"><path d="M87.7 20.9v-4h15.2v4h-5.2v13.8H93V20.9h-5.3zM109.5 27.2v7.5h-4.7V17h4.5v7h.2c.3-1 .8-1.6 1.5-2 .6-.5 1.5-.8 2.4-.8 1 0 1.8.3 2.5.7.7.4 1.2 1 1.6 1.7.3.8.5 1.7.5 2.6v8.5h-4.7v-7.5c0-.6-.2-1.1-.5-1.5-.3-.4-.8-.6-1.4-.6-.6 0-1 .2-1.4.6-.3.4-.5.9-.5 1.5zM126.7 35c-2.1 0-3.8-.7-5-1.9a6.8 6.8 0 01-1.8-5c0-1.4.3-2.6.8-3.6a6 6 0 012.3-2.4 7 7 0 013.6-.9 7 7 0 013.4.9c1 .5 1.7 1.3 2.3 2.3.5 1 .8 2.2.8 3.7v1h-8.6v.3c0 .6.2 1.1.6 1.6.4.4 1 .6 1.7.6.4 0 .9-.1 1.2-.3.4-.2.6-.5.8-.9h4.3a4.9 4.9 0 01-2 3.3 7.3 7.3 0 01-4.4 1.2zm-2.2-8.5h4.2c0-.5-.2-1-.6-1.4a2 2 0 00-1.4-.5c-.6 0-1.1.2-1.5.5-.4.4-.7.9-.7 1.4zM150.2 17h4.7v11.7a6 6 0 01-1 3.4c-.6 1-1.5 1.6-2.6 2.1s-2.5.7-4 .7-2.9-.2-4-.7c-1.1-.5-2-1.2-2.6-2.1-.6-1-1-2-1-3.4V17h4.8v11.5c0 .6.3 1.2.8 1.6.5.4 1.1.6 2 .6 1 0 1.6-.2 2.1-.6.5-.4.8-1 .8-1.6V17zM166.6 22.5c0-.6-.3-1-.7-1.3-.3-.3-.9-.5-1.7-.5-.7 0-1.2.1-1.6.4-.3.2-.5.5-.5 1 0 .4.2.7.5 1 .4.2 1 .5 1.9.6l1.4.3c2 .5 3.3 1.1 4.2 2 .8 1 1.3 2.1 1.3 3.5 0 1.7-.7 3-2 4-1.2 1-3 1.4-5.1 1.4-1.6 0-2.9-.2-4-.7-1.2-.4-2-1.1-2.7-2-.6-1-.9-2.2-.9-3.7h4.5c0 .8.3 1.4.8 1.8.6.5 1.3.7 2.2.7a3 3 0 001.7-.5c.4-.2.6-.6.6-1s-.2-.8-.6-1a6 6 0 00-2-.8l-1.8-.3a8 8 0 01-3.6-1.7 4.2 4.2 0 01-1.4-3.3 5 5 0 011-3 6 6 0 012.4-2 9 9 0 013.7-.7c1.4 0 2.7.3 3.7.8 1 .4 1.8 1.1 2.4 2 .6.9.8 1.9.8 3h-4.5zM177 34.7h-5l5.7-17.7h6.5l5.8 17.7h-5.1l-1-3.4H178l-1 3.4zm2.2-7h3.6L181 22h-.1l-1.8 5.8zM72.9 5.5v.4l-1.4 1.2H71l-.5.2.1.5v.4l-1.1.6-.2.7V11l.9 1-.1.5-1 .3v.6l-.6.4-.5.2h-.7L66 15.2l.2.2.2 1.3-.8 1.7h-.3v-.5h-.8l.5.8.6.7-.2 1-.4.6h-.4v-.7l-.3-.5-.5-.3V18l-.2-.1-.5.5.2.4v1l.4.1.4.7v.4l.1.3-.2.5h.6l.5.2-.1.6.4.2v.2l-.5.4.7.5v.6l-.5.3.3.6-.2.5-1.8.3v.7l-.5 1-.8.1-.2.3-.4.7v.5l-1 1.1H60l-.4.8-.6.3v.2l-.1 2.2.4.6.2.8.4.4v.5l1.1 1 .1 1 .4.7.8 1.4v2.2h-1.6l-.5-.5h-.6v-.7H59l-.2-.3v-.4h-.3l-.7-.9v-.4h-.3l-.2-.3V39l.2-.7-.1-1.1-.4-.1-1.1-1.3h-1l-1.1.6-.5.1-.7-1-1.8-.1h-.3l-.6.4-.3-.4-.4.4h-1.7v.7l-.3.4.8.9-.4.3-1.2-.6-.6.7h-1l-.3-1-1.2-.3v.5l-.3.2-1.6-.4h-.7l-2.2 1v.4l-1 .6-.9.2-.4.5h-.5l-.2.6-.4.1v2c.1.6.4 1 .4 1l-.3.3-1.2-.4a2.5 2.5 0 01-2-1.7c0-.6-.2-.8-.2-.8-.7-.4-1.3-2-1.3-2a5.2 5.2 0 00-1.3-1.9h-.8l-.2-.2H27v.8l-.7.6c-1.2-.3-2-1.7-2-1.7v-.8l-2.6-3-2.3-.2-.2.9-4.3-.5-4.9-2.9v-.8H6.6v-1.1l-.1-.6-.6-.2V27h-.6v-.5l-.5-.1-.8-1-1.2-.2-.4-.3.1-.2.2-.4-.2-.3v-.7L2 21.5l-.2-.2v-.2l.3-.4v-.3l-.5-.6v-1.3L1 18v-.7l-.4-.8v-1l.2-.7L0 14l.4-.6.8-1.2v-.6l.1-.4.1-1.6L3 7v-.5L3 6l.2-.3.5-1.4V4l.4-.4-.3-.5v-.7l.4-.4H4v-.5l-.2-.1V1L4 .4h.3l.2.6.8.2.7.2v.5l-.3.5-.4.1v.7H6l.4-.5V2l.2-.2-.3-.5.2-.5.1-.2-.2-.2.2-.5 2.8.8 3.4 1L14 2h.2L20 3h.2l1.4.1 7.3.9 6.3.3 3-.2v-.6l.6.3v.8L40 5l.4-.4 1 .3.2.5 1 .3.6-.3 1.6.3.4-.6h.5l.6-.7v-.2l.1-.4h1.7l.3.3.7 1.2h.6L50 5l.5.3v.6l.4.2v.6h.4v.5l.5.3.2.4h1.5l2.3-.1.9.9.7 1-.3.5h-1l-.5-.6-.1.1v.8l-.4.9.3 1.3-.7.5v1.1l-.8.3v.4h.8l1.2-1.3H57l1-.7h.7l.1-.3-.1-.4-.7.1-.1-.5.7-.7 1.2-.6h1l-.2-.4 1.5-.6.3-.7 1-.8 3.6-.8.2-.6.6-.1v-.3l.1-.4.3-.1v-.5l-.3-.5.4-1.8h2.5l.6 1.8h.5v.6h1z" fill="#fff"/></svg>